<?xml version="1.0" encoding="utf-8"?>
<!-- Generator: Adobe Illustrator 27.0.1, SVG Export Plug-In . SVG Version: 6.00 Build 0)  -->
<svg version="1.1" id="Layer_1" xmlns="http://www.w3.org/2000/svg" xmlns:xlink="http://www.w3.org/1999/xlink" x="0px" y="0px"
	 viewBox="0 0 676 260" style="enable-background:new 0 0 676 260;" xml:space="preserve">
<style type="text/css">
	.st0{fill:#FF0000;}
	.st1{fill:#FFFFFF;}
</style>
<polyline class="st0" points="22.37,137.94 53.58,132.86 61.59,131.55 94.28,126.23 100.46,125.22 129.84,120.44 145.49,117.89 
	180.39,112.21 222.19,105.4 287.23,94.81 320.81,89.34 409.09,74.96 450.24,68.26 498.56,60.39 656,24 656,256 316.5,191.09 
	286.61,186.3 229.95,177.23 196.86,171.94 164.13,166.7 111.66,158.3 84.87,154.01 24.27,144.31 "/>
<polyline class="st1" points="22.37,137.94 53.58,132.86 61.59,131.55 94.28,126.23 100.46,125.22 129.84,120.44 145.49,117.89 
	180.39,112.21 222.19,105.4 287.23,94.81 320.81,89.34 409.09,74.96 450.24,68.26 498.56,60.39 666,14 666,246 316.5,191.09 
	286.61,186.3 229.95,177.23 196.86,171.94 164.13,166.7 111.66,158.3 84.87,154.01 24.27,144.31 "/>
<polyline points="22.37,137.94 53.58,132.86 61.59,131.55 94.28,126.23 100.46,125.22 129.84,120.44 145.49,117.89 180.39,112.21 
	222.19,105.4 287.23,94.81 320.81,89.34 409.09,74.96 450.24,68.26 498.56,60.39 676,4 676,236 316.5,191.09 286.61,186.3 
	229.95,177.23 196.86,171.94 164.13,166.7 111.66,158.3 84.87,154.01 24.27,144.31 "/>
<g>
	<path class="st0" d="M34.82,62.58l22.16,83l27.27-83h26.59l27.27,83l22.16-83h34.94l-38.35,128.51h-34.09l-25.22-74.48
		l-25.22,74.48H38.23L-0.12,62.58H34.82z"/>
	<path class="st0" d="M280.59,168.76h-47.72l-7.67,22.33h-35.62l48.91-128.51h36.47l48.91,128.51h-35.62L280.59,168.76z
		 M271.72,143.36l-15-42.78l-15,42.78H271.72z"/>
	<path class="st0" d="M381.65,90.87v100.21h-33.4V90.87h-27.44V62.58h88.28v28.29H381.65z"/>
	<path class="st0" d="M515.27,105.53c-7.73-9.43-17.27-14.15-28.63-14.15c-5,0-9.63,0.91-13.89,2.73
		c-4.26,1.82-7.92,4.29-10.99,7.41c-3.07,3.13-5.48,6.85-7.24,11.16c-1.76,4.32-2.64,8.98-2.64,13.98c0,5.11,0.88,9.83,2.64,14.14
		c1.76,4.32,4.2,8.07,7.33,11.25c3.12,3.18,6.79,5.68,10.99,7.5c4.2,1.82,8.75,2.73,13.64,2.73c10.68,0,20.28-4.54,28.8-13.64v39.54
		l-3.41,1.19c-5.11,1.82-9.89,3.15-14.32,4c-4.43,0.85-8.81,1.28-13.13,1.28c-8.86,0-17.36-1.68-25.48-5.03
		c-8.12-3.35-15.28-8.07-21.47-14.14c-6.19-6.08-11.16-13.29-14.91-21.65c-3.75-8.35-5.62-17.47-5.62-27.35
		c0-9.88,1.84-18.94,5.54-27.18c3.69-8.24,8.63-15.34,14.83-21.3c6.19-5.97,13.38-10.62,21.56-13.98
		c8.18-3.35,16.76-5.03,25.73-5.03c5.11,0,10.14,0.54,15.08,1.62c4.94,1.08,10.14,2.76,15.6,5.03V105.53z"/>
	<path class="st0" d="M575.26,112.17h48.23v-49.6h33.4v128.51h-33.4v-53h-48.23v53h-33.4V62.58h33.4V112.17z"/>
</g>
<g>
	<g>
		<path class="st1" d="M145.49,117.89l-7.39,27.69l-8.26-25.14l-29.38,4.78l11.2,33.08l52.47,8.4l16.26-54.49L145.49,117.89z
			 M61.59,131.55l-4.61,14.03l-3.4-12.72l-31.21,5.08l1.9,6.37l60.6,9.7l9.41-27.78L61.59,131.55z"/>
	</g>
	<g>
		<path class="st1" d="M287.23,94.81l-65.04,10.59l-25.33,66.54l33.09,5.29l2.91-8.47h47.73l6.02,17.54l29.89,4.79h7.38
			L287.23,94.81z M241.73,143.36l14.99-42.77l15,42.77H241.73z"/>
	</g>
	<g>
		<path class="st1" d="M320.81,89.34v1.53h27.44v100.22h33.4V90.87h27.44V74.96L320.81,89.34z"/>
	</g>
	<g>
		<path class="st1" d="M461.75,101.52c3.07-3.12,6.74-5.59,11-7.41s8.89-2.73,13.89-2.73c11.36,0,20.9,4.72,28.63,14.15V65.65
			c-5.45-2.28-10.65-3.95-15.59-5.03c-0.37-0.08-0.74-0.16-1.12-0.23l-48.32,7.87c-4.71,2.72-9.03,5.97-12.94,9.74
			c-6.2,5.97-11.14,13.07-14.83,21.31c-3.69,8.24-5.54,17.3-5.54,27.18c0,9.89,1.88,19,5.63,27.36c3.75,8.35,8.72,15.56,14.91,21.64
			c6.19,6.08,13.35,10.8,21.47,14.15c8.13,3.35,16.62,5.03,25.48,5.03c4.32,0,8.69-0.43,13.13-1.28c4.43-0.86,9.2-2.19,14.31-4.01
			l3.41-1.19v-39.54c-8.52,9.09-18.12,13.63-28.8,13.63c-4.89,0-9.43-0.91-13.64-2.72c-4.2-1.82-7.86-4.32-10.99-7.5
			c-3.12-3.18-5.57-6.93-7.33-11.25s-2.64-9.04-2.64-14.15c0-5,0.88-9.65,2.64-13.97S458.69,104.65,461.75,101.52z"/>
	</g>
	<g>
		<path class="st1" d="M575.26,112.17h48.23v-49.6h33.4v128.51h-33.4v-53h-48.23v53h-33.4V62.58h33.4V112.17z"/>
	</g>
</g>
</svg>
